<svg id="Layer_1" data-name="Layer 1" xmlns="http://www.w3.org/2000/svg" viewBox="0 0 270 270"><defs><style>.cls-1{fill:#010202;}</style></defs><title>AlphienLogo</title><path class="cls-1" d="M173,34A135,135,0,1,0,308,169,135,135,0,0,0,173,34Zm49.27,165.37H167.6a58.44,58.44,0,0,0-7,.41c-7.85,1.61-30.13,7.62-44.77,27.65l-.36.53c-.76,1.21-4.21,6.35-6.59,5.15-3.82-1.9-1.35-6.74-1.35-6.74l8.1-20.25,38.53-92.48a7.67,7.67,0,0,1,7.09-4.72h31.53a7.68,7.68,0,0,1,7.13,4.82l30.21,75.53a7.55,7.55,0,0,1,.46,1.69C230.91,193.43,230.84,199.37,222.27,199.37Z" transform="translate(-38 -34)"/></svg>